<?xml version="1.0" standalone="no"?>
<!DOCTYPE svg PUBLIC "-//W3C//DTD SVG 20010904//EN"
 "http://www.w3.org/TR/2001/REC-SVG-20010904/DTD/svg10.dtd">
<svg version="1.0" xmlns="http://www.w3.org/2000/svg"
 width="700.000000pt" height="700.000000pt" viewBox="0 0 700.000000 700.000000"
 preserveAspectRatio="xMidYMid meet">
<metadata>
Created by potrace 1.11, written by Peter Selinger 2001-2013
</metadata>
<g transform="translate(0.000000,700.000000) scale(0.100000,-0.100000)"
fill="#000000" stroke="none">
<path d="M975 6983 c-494 -89 -870 -467 -959 -965 -22 -120 -23 -4883 -1
-5023 46 -300 204 -567 445 -752 60 -46 164 -113 175 -113 3 0 31 -13 62 -28
73 -35 146 -58 260 -82 84 -17 196 -18 2563 -16 2334 1 2479 3 2545 19 39 10
77 20 85 22 74 18 226 87 310 139 92 58 255 209 298 276 9 14 29 41 44 61 42
55 113 204 142 300 58 189 55 19 53 2709 l-2 2475 -27 95 c-53 192 -108 305
-211 440 -170 221 -399 367 -687 436 -71 17 -200 18 -2545 20 -2111 2 -2482 0
-2550 -13z m3140 -1515 c11 -3 43 -9 70 -13 28 -4 59 -8 70 -10 75 -10 215
-55 311 -99 303 -140 482 -385 521 -709 9 -74 9 -252 1 -322 -22 -189 -130
-397 -273 -528 -48 -45 -144 -108 -230 -154 -48 -25 -74 -44 -65 -47 8 -2 49
-14 90 -26 83 -24 204 -81 275 -130 64 -44 172 -155 213 -219 82 -128 149
-313 169 -466 10 -78 10 -335 0 -405 -11 -73 -62 -237 -94 -303 -175 -357
-575 -579 -1143 -633 -41 -4 -537 -8 -1102 -9 l-1028 -1 0 2042 0 2043 1098
-3 c603 -1 1106 -5 1117 -8z"/>
<path d="M2619 4885 c-5 -43 -3 -1099 2 -1107 4 -6 247 -8 655 -6 l649 3 81
28 c170 57 296 174 343 317 6 19 11 38 12 42 0 4 5 22 10 40 15 52 12 237 -6
317 -3 17 -7 34 -7 38 -1 29 -62 146 -93 179 -32 33 -112 85 -161 104 -138 51
-154 52 -841 54 -435 1 -643 -2 -644 -9z"/>
<path d="M2653 3252 c-18 -2 -33 -6 -34 -10 0 -4 -1 -289 -2 -635 l-2 -627
160 0 c650 -1 1196 1 1225 5 73 10 97 15 160 34 144 45 275 155 339 284 95
194 86 497 -19 671 -95 156 -251 244 -485 272 -51 6 -1283 12 -1342 6z"/>
</g>
</svg>
